<svg version="1" xmlns="http://www.w3.org/2000/svg" width="682.667" height="682.667" viewBox="0 0 512.000000 512.000000"><path d="M64 129.2v65.3l5.6-5.7c10.2-10.6 19.7-15.6 30.7-16.2 23.2-1.3 44.3 21.4 49.2 52.9.8 5 .8 20 0 24-3.2 16.4-9.4 29.1-19.3 39-10.5 10.5-22.3 14.5-35.1 11.9-8.7-1.8-15.5-5.8-23.8-14l-7.3-7.2V410h132.2l-5.7 6.2c-3.1 3.5-7.3 9.6-9.3 13.7-3.5 7.1-3.7 8-3.7 17.5 0 8.5.4 11 2.4 15.6 10.6 24.2 42.2 38.2 71.6 32 3.3-.7 10.2-3.3 15.3-5.7 18.3-8.7 30.1-25 30.2-41.9 0-5.3-3.4-16.5-6.7-21.8-1.4-2.3-4.8-6.7-7.5-9.9l-4.9-5.7H410V277.8l6.2 5.7c3.5 3.1 9.6 7.3 13.6 9.2 16.4 8.2 35.2 4.5 48.7-9.4 11.5-11.9 17.7-27.8 17.8-45.8.1-11.8-1.8-19.8-7-30.5-8.2-16.9-22.5-28-38.3-29.7-10.9-1.1-23.1 3.5-34.5 13.2l-6.5 5.6V64H64v65.2z"/></svg>